<?xml version="1.0" encoding="UTF-8" standalone="no"?><!-- Generator: Gravit.io --><svg xmlns="http://www.w3.org/2000/svg" xmlns:xlink="http://www.w3.org/1999/xlink" style="isolation:isolate" viewBox="0 0 144 33" width="144pt" height="33pt"><defs><clipPath id="_clipPath_bNV2K1WJpV3sDfpmXWkmqU5LzFa1Y9yX"><rect width="144" height="33"/></clipPath></defs><g clip-path="url(#_clipPath_bNV2K1WJpV3sDfpmXWkmqU5LzFa1Y9yX)"><clipPath id="_clipPath_quBNebHqYr20wodVGQfYYqwx1B4jzhU0"><rect x="1" y="1" width="144" height="33.333" transform="matrix(1,0,0,1,0,0)" fill="rgb(255,255,255)"/></clipPath><g clip-path="url(#_clipPath_quBNebHqYr20wodVGQfYYqwx1B4jzhU0)"><g><g><path d=" M 14.724 2 C 16.51 1.994 18.266 2.425 19.845 3.257 C 21.297 4.044 22.572 5.118 23.594 6.415 C 24.581 7.649 25.362 9.033 25.901 10.52 C 26.154 11.203 26.349 11.903 26.487 12.615 C 26.613 13.246 26.676 13.895 26.682 14.544 C 26.676 15.187 26.602 15.83 26.464 16.456 C 26.309 17.179 26.096 17.891 25.827 18.58 C 25.523 19.355 25.172 20.107 24.77 20.83 C 24.334 21.634 23.852 22.403 23.324 23.149 C 22.152 24.809 20.815 26.341 19.334 27.73 C 17.801 29.177 16.13 30.48 14.357 31.623 C 13.771 31.215 13.209 30.79 12.652 30.343 C 11.09 29.12 9.603 27.799 8.203 26.387 C 7.376 25.543 6.584 24.665 5.843 23.741 C 5.086 22.816 4.402 21.835 3.794 20.807 C 3.203 19.825 2.726 18.78 2.358 17.696 C 2.02 16.679 1.836 15.617 1.83 14.544 C 1.83 13.166 2.037 11.8 2.439 10.491 C 2.881 9.01 3.587 7.626 4.529 6.409 C 5.574 5.072 6.922 3.998 8.461 3.269 C 9.357 2.856 10.298 2.54 11.263 2.339 C 12.399 2.109 13.559 1.994 14.724 2 Z  M 13.708 12.569 C 13.789 12.799 14.007 12.96 14.253 12.96 C 14.494 12.96 14.718 12.805 14.799 12.575 C 14.879 12.345 14.971 12.115 15.074 11.897 C 15.327 11.358 15.625 10.847 15.975 10.365 C 16.389 9.785 16.9 9.285 17.491 8.884 C 18.123 8.47 18.858 8.241 19.615 8.229 L 19.638 8.229 C 20.299 8.241 20.941 8.401 21.527 8.7 C 22.17 9.027 22.744 9.475 23.226 10.014 C 24.288 11.197 24.885 12.724 24.891 14.314 L 24.891 14.395 C 24.885 14.619 24.856 14.848 24.811 15.066 C 24.748 15.359 24.673 15.652 24.581 15.933 C 24.334 16.662 24.047 17.374 23.708 18.057 C 22.87 19.768 21.894 21.398 20.786 22.943 C 20.224 23.729 19.632 24.499 19.001 25.233 C 18.438 25.899 17.836 26.53 17.193 27.122 C 16.688 27.598 16.13 28.018 15.528 28.368 C 15.304 28.494 15.063 28.597 14.816 28.683 C 14.638 28.741 14.449 28.775 14.253 28.781 C 14.064 28.775 13.869 28.741 13.691 28.683 C 13.444 28.597 13.203 28.494 12.979 28.368 C 12.371 28.012 11.808 27.598 11.297 27.116 C 10.648 26.525 10.034 25.899 9.465 25.227 C 8.834 24.493 8.231 23.729 7.663 22.937 C 6.538 21.393 5.55 19.762 4.701 18.052 C 4.356 17.369 4.058 16.657 3.811 15.927 C 3.713 15.646 3.633 15.353 3.57 15.061 C 3.524 14.843 3.495 14.619 3.489 14.395 L 3.484 14.246 C 3.484 13.425 3.616 12.609 3.886 11.835 C 4.127 11.14 4.506 10.491 4.999 9.94 C 5.481 9.406 6.073 8.975 6.727 8.689 C 7.462 8.379 8.249 8.224 9.041 8.229 C 9.047 8.229 9.047 8.229 9.047 8.229 L 9.064 8.229 C 9.793 8.241 10.499 8.459 11.102 8.872 C 11.676 9.274 12.169 9.774 12.566 10.353 C 12.904 10.835 13.197 11.346 13.438 11.886 C 13.542 12.11 13.634 12.334 13.708 12.569 Z " fill-rule="evenodd" fill="rgb(0,0,0)"/><linearGradient id="_lgradient_0" x1="0.5000000000000004" y1="0" x2="0.5000000000000002" y2="1.146069893065814" gradientTransform="matrix(3.896,0,0,3.245,12.308,15.53)" gradientUnits="userSpaceOnUse"><stop offset="0%" stop-opacity="1" style="stop-color:rgb(245,155,19)"/><stop offset="98.26086956521739%" stop-opacity="1" style="stop-color:rgb(255,8,3)"/></linearGradient><path d=" M 13.75 18.441 L 13.092 17.39 L 12.435 16.339 C 12.155 15.893 12.356 15.53 12.882 15.53 L 14.256 15.53 L 15.63 15.53 C 16.157 15.53 16.357 15.893 16.078 16.339 L 15.42 17.39 L 14.763 18.441 C 14.483 18.887 14.029 18.887 13.75 18.441 Z " fill="url(#_lgradient_0)"/><path d=" M 6.968 13.218 C 6.968 12.128 7.853 11.243 8.944 11.243 C 10.034 11.243 10.919 12.128 10.919 13.218 C 10.919 14.308 10.034 15.193 8.944 15.193 C 7.853 15.193 6.968 14.308 6.968 13.218 Z " fill="rgb(0,0,0)"/><path d=" M 17.433 13.218 C 17.433 12.128 18.319 11.243 19.409 11.243 C 20.499 11.243 21.384 12.128 21.384 13.218 C 21.384 14.308 20.499 15.193 19.409 15.193 C 18.319 15.193 17.433 14.308 17.433 13.218 Z " fill="rgb(0,0,0)"/><g><linearGradient id="_lgradient_1" x1="0.49999999999999956" y1="0" x2="0.4999999999999994" y2="1" gradientTransform="matrix(7.776,0,0,8.289,15.332,24.045)" gradientUnits="userSpaceOnUse"><stop offset="0%" stop-opacity="1" style="stop-color:rgb(245,155,19)"/><stop offset="98.26086956521739%" stop-opacity="1" style="stop-color:rgb(255,8,3)"/></linearGradient><path d=" M 18.333 24.045 L 19.353 26.641 L 21.742 26.801 L 21.446 29.403 L 23.108 30.712 L 19.239 32.334 L 15.332 31.617 L 15.332 28.218 L 18.333 24.045 Z " fill-rule="evenodd" fill="url(#_lgradient_1)"/><linearGradient id="_lgradient_2" x1="0.5" y1="0" x2="0.49999999999999983" y2="1" gradientTransform="matrix(7.776,0,0,8.289,5.224,24.045)" gradientUnits="userSpaceOnUse"><stop offset="0%" stop-opacity="1" style="stop-color:rgb(245,155,19)"/><stop offset="98.26086956521739%" stop-opacity="1" style="stop-color:rgb(255,8,3)"/></linearGradient><path d=" M 10.001 24.045 L 8.979 26.641 L 6.59 26.801 L 6.887 29.403 L 5.224 30.712 L 9.094 32.334 L 13 31.617 L 13 28.218 L 10.001 24.045 Z " fill-rule="evenodd" fill="url(#_lgradient_2)"/></g></g><path d=" M 33.287 26.499 L 33.287 13.62 L 33.287 13.62 Q 33.287 12.223 33.753 11.548 L 33.753 11.548 L 33.753 11.548 Q 34.219 10.873 35.174 10.873 L 35.174 10.873 L 35.174 10.873 Q 36.105 10.873 36.566 11.554 L 36.566 11.554 L 36.566 11.554 Q 37.025 12.235 37.025 13.62 L 37.025 13.62 L 37.025 26.499 L 37.025 26.499 Q 37.025 27.896 36.571 28.566 L 36.571 28.566 L 36.571 28.566 Q 36.117 29.236 35.174 29.236 L 35.174 29.236 L 35.174 29.236 Q 34.219 29.236 33.753 28.56 L 33.753 28.56 L 33.753 28.56 Q 33.287 27.885 33.287 26.499 L 33.287 26.499 Z  M 39.552 13.05 L 39.552 13.05 L 39.552 13.05 Q 39.552 12.153 40.193 11.513 L 40.193 11.513 L 40.193 11.513 Q 40.833 10.873 41.73 10.873 L 41.73 10.873 L 41.73 10.873 Q 42.615 10.873 43.243 11.513 L 43.243 11.513 L 43.243 11.513 Q 43.872 12.153 43.872 13.05 L 43.872 13.05 L 43.872 13.05 Q 43.872 13.958 43.249 14.587 L 43.249 14.587 L 43.249 14.587 Q 42.626 15.216 41.73 15.216 L 41.73 15.216 L 41.73 15.216 Q 40.81 15.216 40.181 14.587 L 40.181 14.587 L 40.181 14.587 Q 39.552 13.958 39.552 13.05 Z  M 43.581 18.942 L 43.581 26.499 L 43.581 26.499 Q 43.581 27.896 43.127 28.566 L 43.127 28.566 L 43.127 28.566 Q 42.673 29.236 41.73 29.236 L 41.73 29.236 L 41.73 29.236 Q 40.775 29.236 40.309 28.56 L 40.309 28.56 L 40.309 28.56 Q 39.843 27.885 39.843 26.499 L 39.843 26.499 L 39.843 18.942 L 39.843 18.942 Q 39.843 17.556 40.303 16.887 L 40.303 16.887 L 40.303 16.887 Q 40.763 16.217 41.73 16.217 L 41.73 16.217 L 41.73 16.217 Q 42.673 16.217 43.127 16.887 L 43.127 16.887 L 43.127 16.887 Q 43.581 17.556 43.581 18.942 L 43.581 18.942 Z  M 46.283 26.499 L 46.283 26.499 L 46.283 18.942 L 46.283 18.942 Q 46.283 17.556 46.743 16.887 L 46.743 16.887 L 46.743 16.887 Q 47.203 16.217 48.157 16.217 L 48.157 16.217 L 48.157 16.217 Q 48.728 16.217 49.17 16.514 L 49.17 16.514 L 49.17 16.514 Q 49.613 16.811 49.951 17.416 L 49.951 17.416 L 49.951 17.416 Q 50.556 16.753 51.348 16.45 L 51.348 16.45 L 51.348 16.45 Q 52.14 16.147 53.269 16.147 L 53.269 16.147 L 53.269 16.147 Q 55.493 16.147 56.67 17.416 L 56.67 17.416 L 56.67 17.416 Q 57.845 18.686 57.845 21.108 L 57.845 21.108 L 57.845 26.499 L 57.845 26.499 Q 57.845 27.885 57.38 28.56 L 57.38 28.56 L 57.38 28.56 Q 56.914 29.236 55.959 29.236 L 55.959 29.236 L 55.959 29.236 Q 55.004 29.236 54.539 28.56 L 54.539 28.56 L 54.539 28.56 Q 54.073 27.885 54.073 26.499 L 54.073 26.499 L 54.073 22.249 L 54.073 22.249 Q 54.073 20.677 53.601 20.008 L 53.601 20.008 L 53.601 20.008 Q 53.13 19.338 52.047 19.338 L 52.047 19.338 L 52.047 19.338 Q 51.022 19.338 50.533 20.03 L 50.533 20.03 L 50.533 20.03 Q 50.044 20.724 50.044 22.203 L 50.044 22.203 L 50.044 26.499 L 50.044 26.499 Q 50.044 27.885 49.578 28.56 L 49.578 28.56 L 49.578 28.56 Q 49.112 29.236 48.157 29.236 L 48.157 29.236 L 48.157 29.236 Q 47.203 29.236 46.743 28.56 L 46.743 28.56 L 46.743 28.56 Q 46.283 27.885 46.283 26.499 Z  M 60.244 23.949 L 60.244 23.949 L 60.244 18.942 L 60.244 18.942 Q 60.244 17.556 60.71 16.887 L 60.71 16.887 L 60.71 16.887 Q 61.176 16.217 62.131 16.217 L 62.131 16.217 L 62.131 16.217 Q 63.074 16.217 63.534 16.887 L 63.534 16.887 L 63.534 16.887 Q 63.994 17.556 63.994 18.942 L 63.994 18.942 L 63.994 23.18 L 63.994 23.18 Q 63.994 24.683 64.448 25.306 L 64.448 25.306 L 64.448 25.306 Q 64.902 25.929 65.927 25.929 L 65.927 25.929 L 65.927 25.929 Q 66.951 25.929 67.405 25.306 L 67.405 25.306 L 67.405 25.306 Q 67.859 24.683 67.859 23.18 L 67.859 23.18 L 67.859 18.942 L 67.859 18.942 Q 67.859 17.556 68.32 16.887 L 68.32 16.887 L 68.32 16.887 Q 68.779 16.217 69.746 16.217 L 69.746 16.217 L 69.746 16.217 Q 70.689 16.217 71.143 16.881 L 71.143 16.881 L 71.143 16.881 Q 71.597 17.545 71.597 18.942 L 71.597 18.942 L 71.597 23.949 L 71.597 23.949 Q 71.597 26.627 70.142 28.042 L 70.142 28.042 L 70.142 28.042 Q 68.686 29.457 65.927 29.457 L 65.927 29.457 L 65.927 29.457 Q 63.167 29.457 61.706 28.042 L 61.706 28.042 L 61.706 28.042 Q 60.244 26.627 60.244 23.949 Z  M 81.518 28.257 L 78.829 25.067 L 76.162 28.257 L 76.162 28.257 Q 75.731 28.782 75.353 29.009 L 75.353 29.009 L 75.353 29.009 Q 74.974 29.236 74.532 29.236 L 74.532 29.236 L 74.532 29.236 Q 73.798 29.236 73.263 28.688 L 73.263 28.688 L 73.263 28.688 Q 72.727 28.141 72.727 27.384 L 72.727 27.384 L 72.727 27.384 Q 72.727 26.953 72.873 26.616 L 72.873 26.616 L 72.873 26.616 Q 73.018 26.278 73.507 25.731 L 73.507 25.731 L 76.64 22.296 L 74.008 19.629 L 74.008 19.629 Q 73.67 19.268 73.484 18.872 L 73.484 18.872 L 73.484 18.872 Q 73.298 18.476 73.298 18.104 L 73.298 18.104 L 73.298 18.104 Q 73.298 17.358 73.828 16.788 L 73.828 16.788 L 73.828 16.788 Q 74.357 16.217 75.056 16.217 L 75.056 16.217 L 75.056 16.217 Q 75.498 16.217 75.883 16.409 L 75.883 16.409 L 75.883 16.409 Q 76.267 16.601 76.616 17.009 L 76.616 17.009 L 78.899 19.652 L 80.995 17.079 L 80.995 17.079 Q 81.321 16.683 81.745 16.439 L 81.745 16.439 L 81.745 16.439 Q 82.17 16.194 82.52 16.194 L 82.52 16.194 L 82.52 16.194 Q 83.312 16.194 83.882 16.747 L 83.882 16.747 L 83.882 16.747 Q 84.453 17.3 84.453 18.057 L 84.453 18.057 L 84.453 18.057 Q 84.453 18.406 84.243 18.814 L 84.243 18.814 L 84.243 18.814 Q 84.034 19.222 83.626 19.676 L 83.626 19.676 L 81.146 22.319 L 84.08 25.638 L 84.08 25.638 Q 84.616 26.231 84.785 26.627 L 84.785 26.627 L 84.785 26.627 Q 84.953 27.023 84.953 27.501 L 84.953 27.501 L 84.953 27.501 Q 84.953 28.211 84.447 28.723 L 84.447 28.723 L 84.447 28.723 Q 83.94 29.236 83.242 29.236 L 83.242 29.236 L 83.242 29.236 Q 82.764 29.236 82.375 29.014 L 82.375 29.014 L 82.375 29.014 Q 81.984 28.793 81.518 28.257 L 81.518 28.257 Z " fill="rgb(0,0,0)"/><linearGradient id="_lgradient_3" x1="0.5" y1="0" x2="0.49999999999999983" y2="0.9999999999999999" gradientTransform="matrix(40.348,0,0,18.585,98.652,10.873)" gradientUnits="userSpaceOnUse"><stop offset="0%" stop-opacity="1" style="stop-color:rgb(245,156,20)"/><stop offset="100%" stop-opacity="1" style="stop-color:rgb(255,5,2)"/><stop offset="100%" stop-opacity="1" style="stop-color:rgb(0,0,0)"/></linearGradient><path d=" M 102.413 13.62 L 102.413 17.335 L 102.413 17.335 Q 103.019 16.706 103.764 16.427 L 103.764 16.427 L 103.764 16.427 Q 104.509 16.147 105.638 16.147 L 105.638 16.147 L 105.638 16.147 Q 107.863 16.147 109.039 17.416 L 109.039 17.416 L 109.039 17.416 Q 110.215 18.686 110.215 21.108 L 110.215 21.108 L 110.215 26.499 L 110.215 26.499 Q 110.215 27.885 109.749 28.56 L 109.749 28.56 L 109.749 28.56 Q 109.283 29.236 108.329 29.236 L 108.329 29.236 L 108.329 29.236 Q 107.374 29.236 106.908 28.56 L 106.908 28.56 L 106.908 28.56 Q 106.442 27.885 106.442 26.499 L 106.442 26.499 L 106.442 22.249 L 106.442 22.249 Q 106.442 20.677 105.97 20.008 L 105.97 20.008 L 105.97 20.008 Q 105.499 19.338 104.416 19.338 L 104.416 19.338 L 104.416 19.338 Q 103.392 19.338 102.902 20.03 L 102.902 20.03 L 102.902 20.03 Q 102.413 20.724 102.413 22.203 L 102.413 22.203 L 102.413 26.499 L 102.413 26.499 Q 102.413 27.885 101.947 28.56 L 101.947 28.56 L 101.947 28.56 Q 101.482 29.236 100.527 29.236 L 100.527 29.236 L 100.527 29.236 Q 99.572 29.236 99.112 28.56 L 99.112 28.56 L 99.112 28.56 Q 98.652 27.885 98.652 26.499 L 98.652 26.499 L 98.652 13.62 L 98.652 13.62 Q 98.652 12.223 99.112 11.548 L 99.112 11.548 L 99.112 11.548 Q 99.572 10.873 100.527 10.873 L 100.527 10.873 L 100.527 10.873 Q 101.482 10.873 101.947 11.559 L 101.947 11.559 L 101.947 11.559 Q 102.413 12.247 102.413 13.62 L 102.413 13.62 Z  M 112.613 23.949 L 112.613 23.949 L 112.613 18.942 L 112.613 18.942 Q 112.613 17.556 113.079 16.887 L 113.079 16.887 L 113.079 16.887 Q 113.545 16.217 114.5 16.217 L 114.5 16.217 L 114.5 16.217 Q 115.443 16.217 115.903 16.887 L 115.903 16.887 L 115.903 16.887 Q 116.363 17.556 116.363 18.942 L 116.363 18.942 L 116.363 23.18 L 116.363 23.18 Q 116.363 24.683 116.817 25.306 L 116.817 25.306 L 116.817 25.306 Q 117.271 25.929 118.296 25.929 L 118.296 25.929 L 118.296 25.929 Q 119.321 25.929 119.775 25.306 L 119.775 25.306 L 119.775 25.306 Q 120.229 24.683 120.229 23.18 L 120.229 23.18 L 120.229 18.942 L 120.229 18.942 Q 120.229 17.556 120.689 16.887 L 120.689 16.887 L 120.689 16.887 Q 121.149 16.217 122.115 16.217 L 122.115 16.217 L 122.115 16.217 Q 123.059 16.217 123.513 16.881 L 123.513 16.881 L 123.513 16.881 Q 123.967 17.545 123.967 18.942 L 123.967 18.942 L 123.967 23.949 L 123.967 23.949 Q 123.967 26.627 122.511 28.042 L 122.511 28.042 L 122.511 28.042 Q 121.056 29.457 118.296 29.457 L 118.296 29.457 L 118.296 29.457 Q 115.536 29.457 114.075 28.042 L 114.075 28.042 L 114.075 28.042 Q 112.613 26.627 112.613 23.949 Z  M 130.197 22.657 L 130.197 22.657 L 130.197 22.657 Q 130.197 24.077 130.889 24.939 L 130.889 24.939 L 130.889 24.939 Q 131.582 25.801 132.677 25.801 L 132.677 25.801 L 132.677 25.801 Q 133.76 25.801 134.458 24.927 L 134.458 24.927 L 134.458 24.927 Q 135.157 24.054 135.157 22.657 L 135.157 22.657 L 135.157 22.657 Q 135.157 21.236 134.464 20.351 L 134.464 20.351 L 134.464 20.351 Q 133.772 19.466 132.677 19.466 L 132.677 19.466 L 132.677 19.466 Q 131.582 19.466 130.889 20.345 L 130.889 20.345 L 130.889 20.345 Q 130.197 21.224 130.197 22.657 Z  M 130.266 13.62 L 130.266 17.056 L 130.266 17.056 Q 130.884 16.52 131.623 16.252 L 131.623 16.252 L 131.623 16.252 Q 132.363 15.984 133.224 15.984 L 133.224 15.984 L 133.224 15.984 Q 135.658 15.984 137.329 17.911 L 137.329 17.911 L 137.329 17.911 Q 139 19.839 139 22.726 L 139 22.726 L 139 22.726 Q 139 25.451 137.288 27.378 L 137.288 27.378 L 137.288 27.378 Q 135.576 29.305 133.224 29.305 L 133.224 29.305 L 133.224 29.305 Q 132.293 29.305 131.512 28.98 L 131.512 28.98 L 131.512 28.98 Q 130.732 28.653 130.173 28.025 L 130.173 28.025 L 130.173 28.025 Q 129.824 28.63 129.376 28.933 L 129.376 28.933 L 129.376 28.933 Q 128.928 29.236 128.38 29.236 L 128.38 29.236 L 128.38 29.236 Q 127.425 29.236 126.965 28.56 L 126.965 28.56 L 126.965 28.56 Q 126.505 27.885 126.505 26.499 L 126.505 26.499 L 126.505 13.62 L 126.505 13.62 Q 126.505 12.223 126.965 11.548 L 126.965 11.548 L 126.965 11.548 Q 127.425 10.873 128.38 10.873 L 128.38 10.873 L 128.38 10.873 Q 129.335 10.873 129.801 11.548 L 129.801 11.548 L 129.801 11.548 Q 130.266 12.223 130.266 13.62 L 130.266 13.62 Z " fill="url(#_lgradient_3)"/><path d=" M 97.016 13.795 L 89.621 27.791 L 89.621 27.791 Q 89.261 28.502 88.853 28.84 L 88.853 28.84 L 88.853 28.84 Q 88.446 29.178 87.956 29.178 L 87.956 29.178 L 87.956 29.178 Q 87.304 29.178 86.845 28.741 L 86.845 28.741 L 86.845 28.741 Q 86.384 28.304 86.384 27.675 L 86.384 27.675 L 86.384 27.675 Q 86.384 27.419 86.466 27.134 L 86.466 27.134 L 86.466 27.134 Q 86.547 26.849 86.722 26.534 L 86.722 26.534 L 94.128 12.538 L 94.128 12.538 Q 94.547 11.769 94.931 11.461 L 94.931 11.461 L 94.931 11.461 Q 95.316 11.152 95.805 11.152 L 95.805 11.152 L 95.805 11.152 Q 96.469 11.152 96.923 11.577 L 96.923 11.577 L 96.923 11.577 Q 97.377 12.002 97.377 12.631 L 97.377 12.631 L 97.377 12.631 Q 97.377 12.864 97.289 13.143 L 97.289 13.143 L 97.289 13.143 Q 97.202 13.422 97.016 13.795 L 97.016 13.795 Z " fill="rgb(0,0,0)"/></g></g></g></svg>