<?xml version="1.0" encoding="UTF-8" standalone="no"?><!-- Generator: Gravit.io --><svg xmlns="http://www.w3.org/2000/svg" xmlns:xlink="http://www.w3.org/1999/xlink" style="isolation:isolate" viewBox="0 0 139 33" width="139pt" height="33pt"><defs><clipPath id="_clipPath_2dXrjpDe8LKyFGUHHKP606vT3m9HeSDD"><rect width="139" height="33"/></clipPath></defs><g clip-path="url(#_clipPath_2dXrjpDe8LKyFGUHHKP606vT3m9HeSDD)"><linearGradient id="_lgradient_8" x1="0.4999999999999996" y1="8.326672684688674e-17" x2="0.49866962732108616" y2="1.1358774642775908" gradientTransform="matrix(38.647,0,0,16.338,96.728,11.442)" gradientUnits="userSpaceOnUse"><stop offset="0%" stop-opacity="1" style="stop-color:rgb(246,144,18)"/><stop offset="100%" stop-opacity="1" style="stop-color:rgb(255,16,4)"/></linearGradient><path d=" M 103.646 16.039 L 103.646 16.039 L 103.646 16.039 Q 105.922 16.039 106.902 17.335 L 106.902 17.335 L 106.902 17.335 Q 107.882 18.631 107.882 20.569 L 107.882 20.569 L 107.882 27.352 L 104.187 27.352 L 104.187 20.681 L 104.187 20.681 Q 104.187 19.915 103.758 19.498 L 103.758 19.498 L 103.758 19.498 Q 103.33 19.081 102.632 19.081 L 102.632 19.081 L 102.632 19.081 Q 102.158 19.081 101.539 19.329 L 101.539 19.329 L 101.539 19.329 Q 100.919 19.577 100.423 19.87 L 100.423 19.87 L 100.423 27.352 L 96.728 27.352 L 96.728 11.69 L 100.423 11.442 L 100.423 16.895 L 100.423 16.895 Q 101.122 16.512 102.001 16.276 L 102.001 16.276 L 102.001 16.276 Q 102.88 16.039 103.646 16.039 Z  M 114.417 27.78 L 114.417 27.78 L 114.417 27.78 Q 112.141 27.78 111.195 26.473 L 111.195 26.473 L 111.195 26.473 Q 110.249 25.166 110.249 23.228 L 110.249 23.228 L 110.249 16.445 L 113.967 16.445 L 113.967 23.138 L 113.967 23.138 Q 113.967 23.904 114.35 24.309 L 114.35 24.309 L 114.35 24.309 Q 114.733 24.715 115.432 24.715 L 115.432 24.715 L 115.432 24.715 Q 115.86 24.715 116.446 24.49 L 116.446 24.49 L 116.446 24.49 Q 117.032 24.264 117.527 23.971 L 117.527 23.971 L 117.527 16.445 L 121.246 16.445 L 121.246 27.352 L 119.375 27.352 L 118.519 26.383 L 118.519 26.383 Q 117.82 26.878 116.727 27.329 L 116.727 27.329 L 116.727 27.329 Q 115.634 27.78 114.417 27.78 Z  M 124.04 11.69 L 127.736 11.442 L 127.736 16.693 L 127.736 16.693 Q 128.231 16.4 128.907 16.219 L 128.907 16.219 L 128.907 16.219 Q 129.584 16.039 130.214 16.039 L 130.214 16.039 L 130.214 16.039 Q 132.783 16.039 134.079 17.673 L 134.079 17.673 L 134.079 17.673 Q 135.375 19.307 135.375 21.763 L 135.375 21.763 L 135.375 21.763 Q 135.375 24.219 134.079 25.909 L 134.079 25.909 L 134.079 25.909 Q 132.783 27.599 130.079 27.599 L 130.079 27.599 L 130.079 27.599 Q 129.2 27.599 128.265 27.25 L 128.265 27.25 L 128.265 27.25 Q 127.33 26.901 126.586 26.36 L 126.586 26.36 L 125.91 27.352 L 124.04 27.352 L 124.04 11.69 Z  M 131.567 21.808 L 131.567 21.808 L 131.567 21.808 Q 131.567 20.726 131.026 19.904 L 131.026 19.904 L 131.026 19.904 Q 130.485 19.081 129.268 19.081 L 129.268 19.081 L 129.268 19.081 Q 128.953 19.081 128.513 19.205 L 128.513 19.205 L 128.513 19.205 Q 128.074 19.329 127.736 19.509 L 127.736 19.509 L 127.736 23.904 L 127.736 23.904 Q 128.096 24.197 128.581 24.377 L 128.581 24.377 L 128.581 24.377 Q 129.065 24.557 129.493 24.557 L 129.493 24.557 L 129.493 24.557 Q 130.62 24.557 131.093 23.645 L 131.093 23.645 L 131.093 23.645 Q 131.567 22.732 131.567 21.808 Z " fill="url(#_lgradient_8)"/><path d=" M 32.661 11.69 L 36.356 11.442 L 36.356 27.352 L 32.661 27.352 L 32.661 11.69 Z  M 43.027 12.907 L 43.027 12.907 L 43.027 12.907 Q 43.027 13.74 42.418 14.326 L 42.418 14.326 L 42.418 14.326 Q 41.81 14.912 40.976 14.912 L 40.976 14.912 L 40.976 14.912 Q 40.142 14.912 39.556 14.326 L 39.556 14.326 L 39.556 14.326 Q 38.97 13.74 38.97 12.907 L 38.97 12.907 L 38.97 12.907 Q 38.97 12.073 39.556 11.464 L 39.556 11.464 L 39.556 11.464 Q 40.142 10.856 40.976 10.856 L 40.976 10.856 L 40.976 10.856 Q 41.81 10.856 42.418 11.464 L 42.418 11.464 L 42.418 11.464 Q 43.027 12.073 43.027 12.907 Z  M 39.128 16.422 L 42.846 16.422 L 42.846 27.352 L 39.128 27.352 L 39.128 16.422 Z  M 52.514 16.017 L 52.514 16.017 L 52.514 16.017 Q 54.79 16.017 55.77 17.324 L 55.77 17.324 L 55.77 17.324 Q 56.751 18.631 56.751 20.569 L 56.751 20.569 L 56.751 27.352 L 53.055 27.352 L 53.055 20.659 L 53.055 20.659 Q 53.055 19.893 52.638 19.487 L 52.638 19.487 L 52.638 19.487 Q 52.221 19.081 51.522 19.081 L 51.522 19.081 L 51.522 19.081 Q 51.049 19.081 50.418 19.329 L 50.418 19.329 L 50.418 19.329 Q 49.787 19.577 49.291 19.87 L 49.291 19.87 L 49.291 27.352 L 45.596 27.352 L 45.596 16.445 L 47.466 16.445 L 48.322 17.459 L 48.322 17.459 Q 49.044 16.94 50.182 16.478 L 50.182 16.478 L 50.182 16.478 Q 51.32 16.017 52.514 16.017 Z  M 63.286 27.78 L 63.286 27.78 L 63.286 27.78 Q 61.01 27.78 60.063 26.473 L 60.063 26.473 L 60.063 26.473 Q 59.117 25.166 59.117 23.228 L 59.117 23.228 L 59.117 16.445 L 62.835 16.445 L 62.835 23.138 L 62.835 23.138 Q 62.835 23.904 63.218 24.309 L 63.218 24.309 L 63.218 24.309 Q 63.601 24.715 64.3 24.715 L 64.3 24.715 L 64.3 24.715 Q 64.728 24.715 65.314 24.49 L 65.314 24.49 L 65.314 24.49 Q 65.9 24.264 66.395 23.971 L 66.395 23.971 L 66.395 16.445 L 70.114 16.445 L 70.114 27.352 L 68.243 27.352 L 67.387 26.383 L 67.387 26.383 Q 66.688 26.878 65.595 27.329 L 65.595 27.329 L 65.595 27.329 Q 64.503 27.78 63.286 27.78 Z  M 75.815 27.352 L 71.669 27.352 L 75.725 21.898 L 71.804 16.918 L 71.804 16.918 Q 72.75 16.805 73.697 16.659 L 73.697 16.659 L 73.697 16.659 Q 74.643 16.512 75.612 16.4 L 75.612 16.4 L 77.911 19.374 L 80.232 16.422 L 84.311 16.422 L 80.119 22.191 L 80.119 22.191 Q 81.156 23.476 82.159 24.771 L 82.159 24.771 L 82.159 24.771 Q 83.161 26.067 84.198 27.352 L 84.198 27.352 L 80.052 27.352 L 77.933 24.715 L 77.933 24.715 Q 77.415 25.369 76.885 26.033 L 76.885 26.033 L 76.885 26.033 Q 76.356 26.698 75.815 27.352 L 75.815 27.352 Z  M 91.342 11.442 L 95.195 11.442 L 88.457 27.352 L 84.626 27.352 L 91.342 11.442 Z " fill="rgb(0,0,0)"/><g><path d=" M 14.724 2 C 16.51 1.994 18.266 2.425 19.845 3.257 C 21.297 4.044 22.572 5.118 23.594 6.415 C 24.581 7.649 25.362 9.033 25.901 10.52 C 26.154 11.203 26.349 11.903 26.487 12.615 C 26.613 13.246 26.676 13.895 26.682 14.544 C 26.676 15.187 26.602 15.83 26.464 16.456 C 26.309 17.179 26.096 17.891 25.827 18.58 C 25.523 19.355 25.172 20.107 24.77 20.83 C 24.334 21.634 23.852 22.403 23.324 23.149 C 22.152 24.809 20.815 26.341 19.334 27.73 C 17.801 29.177 16.13 30.48 14.357 31.623 C 13.771 31.215 13.209 30.79 12.652 30.343 C 11.09 29.12 9.603 27.799 8.203 26.387 C 7.376 25.543 6.584 24.665 5.843 23.741 C 5.086 22.816 4.402 21.835 3.794 20.807 C 3.203 19.825 2.726 18.78 2.358 17.696 C 2.02 16.679 1.836 15.617 1.83 14.544 C 1.83 13.166 2.037 11.8 2.439 10.491 C 2.881 9.01 3.587 7.626 4.529 6.409 C 5.574 5.072 6.922 3.998 8.461 3.269 C 9.357 2.856 10.298 2.54 11.263 2.339 C 12.399 2.109 13.559 1.994 14.724 2 Z  M 13.708 12.569 C 13.789 12.799 14.718 12.805 14.799 12.575 C 14.879 12.345 14.971 12.115 15.074 11.897 C 15.327 11.358 15.625 10.847 15.975 10.365 C 16.389 9.785 16.9 9.285 17.491 8.884 C 18.123 8.47 18.858 8.241 19.615 8.229 L 19.638 8.229 C 20.299 8.241 20.941 8.401 21.527 8.7 C 22.17 9.027 22.744 9.475 23.226 10.014 C 24.288 11.197 24.885 12.724 24.891 14.314 L 24.891 14.395 C 24.885 14.619 24.856 14.848 24.811 15.066 C 24.748 15.359 24.673 15.652 24.581 15.933 C 24.334 16.662 24.047 17.374 23.708 18.057 C 22.87 19.768 21.894 21.398 20.786 22.943 C 20.224 23.729 19.632 24.499 19.001 25.233 C 18.438 25.899 17.836 26.53 17.193 27.122 C 16.688 27.598 16.13 28.018 15.528 28.368 C 15.304 28.494 15.063 28.597 14.816 28.683 C 14.638 28.741 14.449 28.775 14.253 28.781 C 14.064 28.775 13.869 28.741 13.691 28.683 C 13.444 28.597 13.203 28.494 12.979 28.368 C 12.371 28.012 11.808 27.598 11.297 27.116 C 10.648 26.525 10.034 25.899 9.465 25.227 C 8.834 24.493 8.231 23.729 7.663 22.937 C 6.538 21.393 5.55 19.762 4.701 18.052 C 4.356 17.369 4.058 16.657 3.811 15.927 C 3.713 15.646 3.633 15.353 3.57 15.061 C 3.524 14.843 3.495 14.619 3.489 14.395 L 3.484 14.246 C 3.484 13.425 3.616 12.609 3.886 11.835 C 4.127 11.14 4.506 10.491 4.999 9.94 C 5.481 9.406 6.073 8.975 6.727 8.689 C 7.462 8.379 8.249 8.224 9.041 8.229 C 9.047 8.229 9.047 8.229 9.047 8.229 L 9.064 8.229 C 9.793 8.241 10.499 8.459 11.102 8.872 C 11.676 9.274 12.169 9.774 12.566 10.353 C 12.904 10.835 13.197 11.346 13.438 11.886 C 13.542 12.11 13.634 12.334 13.708 12.569 Z " fill-rule="evenodd" fill="rgb(0,0,0)"/><linearGradient id="_lgradient_9" x1="0.4999320822405928" y1="0" x2="0.49467705522190525" y2="0.7326617911749465" gradientTransform="matrix(3.437,0,0,3.431,12.611,16.125)" gradientUnits="userSpaceOnUse"><stop offset="0%" stop-opacity="1" style="stop-color:rgb(245,155,19)"/><stop offset="98.26086956521739%" stop-opacity="1" style="stop-color:rgb(255,8,3)"/></linearGradient><path d=" M 13.883 19.203 L 13.302 18.092 L 12.723 16.98 C 12.475 16.509 12.653 16.125 13.117 16.125 L 14.33 16.125 L 15.542 16.125 C 16.007 16.125 16.184 16.509 15.937 16.98 L 15.357 18.092 L 14.777 19.203 C 14.53 19.674 14.129 19.674 13.883 19.203 Z " fill="url(#_lgradient_9)"/><path d=" M 21.454 13.96 C 21.378 14.98 20.525 15.786 19.485 15.786 C 18.395 15.786 17.51 14.901 17.51 13.811 C 17.51 12.721 18.395 11.835 19.485 11.835 C 20.524 11.835 21.377 12.641 21.454 13.661 L 21.149 13.696 L 20.134 13.811 L 21.149 13.925 L 21.454 13.96 Z " fill="rgb(0,0,0)"/><path d=" M 10.989 13.96 C 10.913 14.98 10.06 15.786 9.02 15.786 C 7.93 15.786 7.045 14.901 7.045 13.811 C 7.045 12.721 7.93 11.835 9.02 11.835 C 10.059 11.835 10.912 12.641 10.989 13.661 L 10.684 13.696 L 9.669 13.811 L 10.684 13.925 L 10.989 13.96 Z " fill="rgb(0,0,0)"/><g><linearGradient id="_lgradient_10" x1="0.4999999999999998" y1="0" x2="0.5197746882283597" y2="0.9670996159746843" gradientTransform="matrix(7.776,0,0,8.289,15.508,24.08)" gradientUnits="userSpaceOnUse"><stop offset="0%" stop-opacity="1" style="stop-color:rgb(245,155,19)"/><stop offset="53.333333333333336%" stop-opacity="1" style="stop-color:rgb(248,112,14)"/><stop offset="98.26086956521739%" stop-opacity="1" style="stop-color:rgb(255,8,3)"/></linearGradient><path d=" M 18.874 25.011 L 19.163 25.745 C 19.365 26.259 19.976 26.706 20.527 26.743 L 20.92 26.769 C 21.471 26.806 21.867 27.281 21.805 27.83 L 21.735 28.445 C 21.672 28.993 21.974 29.715 22.407 30.057 L 22.498 30.128 C 22.932 30.47 22.871 30.92 22.362 31.134 L 22.181 31.209 C 20.655 31.849 18.539 32.209 17.461 32.011 L 17.461 32.011 C 16.383 31.813 15.508 30.891 15.508 29.953 L 15.508 29.953 C 15.508 29.015 16.293 27.162 17.259 25.818 L 17.925 24.892 C 18.247 24.444 18.673 24.497 18.874 25.011 Z " fill-rule="evenodd" fill="url(#_lgradient_10)"/><linearGradient id="_lgradient_11" x1="0.5" y1="0" x2="0.5197746882283599" y2="0.9670996159746843" gradientTransform="matrix(-7.776,0,0,8.289,12.991,24.08)" gradientUnits="userSpaceOnUse"><stop offset="0%" stop-opacity="1" style="stop-color:rgb(245,155,19)"/><stop offset="53.333333333333336%" stop-opacity="1" style="stop-color:rgb(248,112,14)"/><stop offset="98.26086956521739%" stop-opacity="1" style="stop-color:rgb(255,8,3)"/></linearGradient><path d=" M 9.625 25.011 L 9.336 25.745 C 9.134 26.259 8.523 26.706 7.972 26.743 L 7.579 26.769 C 7.028 26.806 6.632 27.281 6.694 27.83 L 6.764 28.445 C 6.827 28.993 6.525 29.715 6.092 30.057 L 6.001 30.128 C 5.567 30.47 5.628 30.92 6.137 31.134 L 6.318 31.209 C 7.844 31.849 9.96 32.209 11.038 32.011 L 11.038 32.011 C 12.116 31.813 12.991 30.891 12.991 29.953 L 12.991 29.953 C 12.991 29.015 12.206 27.162 11.24 25.818 L 10.574 24.892 C 10.252 24.444 9.826 24.497 9.625 25.011 Z " fill-rule="evenodd" fill="url(#_lgradient_11)"/></g></g></g></svg>