<?xml version="1.0" encoding="UTF-8" standalone="no"?><!-- Generator: Gravit.io --><svg xmlns="http://www.w3.org/2000/svg" xmlns:xlink="http://www.w3.org/1999/xlink" style="isolation:isolate" viewBox="0 0 28 33" width="28pt" height="33pt"><defs><clipPath id="_clipPath_AEIEvcXT1woa90xUTrSErHAQC0I6j6Ty"><rect width="28" height="33"/></clipPath></defs><g clip-path="url(#_clipPath_AEIEvcXT1woa90xUTrSErHAQC0I6j6Ty)"><path d=" M 14.468 1.15 C 16.257 1.144 18.017 1.576 19.599 2.41 C 21.054 3.198 22.331 4.273 23.355 5.573 C 24.344 6.81 25.126 8.196 25.666 9.685 C 25.92 10.37 26.115 11.071 26.253 11.784 C 26.38 12.417 26.443 13.067 26.449 13.717 C 26.443 14.361 26.368 15.005 26.23 15.632 C 26.075 16.357 25.862 17.07 25.592 17.76 C 25.287 18.537 24.936 19.29 24.533 20.015 C 24.096 20.82 23.613 21.591 23.084 22.338 C 21.911 24.001 20.571 25.536 19.087 26.928 C 17.551 28.377 15.877 29.683 14.1 30.828 C 13.513 30.419 12.95 29.993 12.392 29.545 C 10.828 28.32 9.338 26.997 7.935 25.582 C 7.107 24.737 6.313 23.857 5.571 22.931 C 4.812 22.005 4.127 21.021 3.518 19.992 C 2.925 19.008 2.448 17.961 2.08 16.875 C 1.74 15.856 1.556 14.792 1.551 13.717 C 1.551 12.337 1.758 10.968 2.16 9.657 C 2.603 8.173 3.311 6.787 4.254 5.567 C 5.301 4.227 6.652 3.152 8.194 2.421 C 9.091 2.007 10.034 1.691 11 1.49 C 12.139 1.259 13.301 1.144 14.468 1.15 Z  M 13.45 11.01 C 13.531 11.241 13.753 11.471 14 11.471 C 14.242 11.471 14.462 11.246 14.543 11.016 C 14.623 10.786 14.716 10.556 14.819 10.337 C 15.072 9.797 15.371 9.528 15.722 9.044 C 16.136 8.464 16.648 8.206 17.241 7.803 C 17.873 7.389 18.61 7.402 19.368 7.391 L 19.392 7.391 C 20.053 7.402 20.697 7.563 21.284 7.862 C 21.928 8.19 22.503 8.639 22.986 9.179 C 24.05 10.364 24.649 11.894 24.654 13.487 L 24.654 13.568 C 24.649 13.792 24.619 14.022 24.574 14.24 C 24.51 14.534 24.435 14.827 24.344 15.109 C 24.096 15.839 23.809 16.553 23.469 17.237 C 22.63 18.951 21.652 20.584 20.542 22.131 C 19.978 22.919 19.386 23.69 18.753 24.426 C 18.19 25.093 17.586 25.726 16.941 26.318 C 16.435 26.796 15.877 27.216 15.274 27.566 C 15.049 27.693 14.808 27.796 14.56 27.883 C 14.382 27.94 14.192 27.975 13.997 27.981 C 13.807 27.975 13.611 27.94 13.433 27.883 C 13.186 27.796 12.944 27.693 12.72 27.566 C 12.111 27.21 11.547 26.796 11.035 26.313 C 10.385 25.72 9.77 25.093 9.2 24.42 C 8.567 23.684 7.963 22.919 7.394 22.126 C 6.267 20.579 5.277 18.945 4.426 17.231 C 4.081 16.547 3.782 15.834 3.535 15.103 C 3.437 14.821 3.356 14.528 3.293 14.235 C 3.248 14.016 3.219 13.792 3.213 13.568 L 3.207 13.418 C 3.207 12.596 3.339 11.779 3.61 11.003 C 3.852 10.306 4.231 9.657 4.725 9.105 C 5.209 8.569 5.801 8.138 6.457 7.851 C 7.193 7.54 7.981 7.385 8.775 7.391 C 8.78 7.391 8.78 7.391 8.78 7.391 L 8.798 7.391 C 9.528 7.402 10.235 7.378 10.839 7.792 C 11.414 8.194 11.909 8.452 12.306 9.033 C 12.645 9.516 12.939 9.785 13.18 10.326 C 13.284 10.55 13.376 10.775 13.45 11.01 Z " fill-rule="evenodd" fill="rgb(0,0,0)"/><linearGradient id="_lgradient_0" x1="0.4998755583784824" y1="0" x2="0.49987555837848224" y2="0.9999231064975005" gradientTransform="matrix(3.903,0,0,3.251,12.049,15.183)" gradientUnits="userSpaceOnUse"><stop offset="0%" stop-opacity="1" style="stop-color:rgb(255,153,0)"/><stop offset="98.26086956521739%" stop-opacity="1" style="stop-color:rgb(255,8,3)"/></linearGradient><path d=" M 13.492 18.099 L 12.833 17.046 L 12.175 15.994 C 11.895 15.546 12.096 15.183 12.623 15.183 L 14 15.183 L 15.376 15.183 C 15.904 15.183 16.105 15.546 15.825 15.994 L 15.166 17.046 L 14.507 18.099 C 14.227 18.546 13.772 18.546 13.492 18.099 Z " fill="url(#_lgradient_0)"/><path d=" M 7.174 12.867 C 7.174 11.848 7.944 11.02 8.892 11.02 C 9.84 11.02 10.61 11.848 10.61 12.867 C 10.61 13.886 9.84 14.713 8.892 14.713 C 7.944 14.713 7.174 13.886 7.174 12.867 Z " fill="rgb(0,0,0)"/><path d=" M 17.229 12.867 C 17.229 11.848 17.999 11.02 18.947 11.02 C 19.895 11.02 20.664 11.848 20.664 12.867 C 20.664 13.886 19.895 14.713 18.947 14.713 C 17.999 14.713 17.229 13.886 17.229 12.867 Z " fill="rgb(0,0,0)"/><g><linearGradient id="_lgradient_1" x1="0.4999999999999998" y1="0" x2="0.4999999999999996" y2="1" gradientTransform="matrix(8.367,0,0,8.92,15.254,22.931)" gradientUnits="userSpaceOnUse"><stop offset="0%" stop-opacity="1" style="stop-color:rgb(255,153,0)"/><stop offset="98.26086956521739%" stop-opacity="1" style="stop-color:rgb(255,8,3)"/></linearGradient><path d=" M 18.483 22.931 L 19.58 25.724 L 22.151 25.897 L 21.832 28.696 L 23.621 30.105 L 19.458 31.851 L 15.254 31.079 L 15.254 27.421 L 18.483 22.931 Z " fill-rule="evenodd" fill="url(#_lgradient_1)"/><linearGradient id="_lgradient_2" x1="0.5000000000000001" y1="0" x2="0.4999999999999999" y2="1.2087545300387965" gradientTransform="matrix(8.367,0,0,8.92,4.378,22.931)" gradientUnits="userSpaceOnUse"><stop offset="0%" stop-opacity="1" style="stop-color:rgb(255,153,0)"/><stop offset="98.26086956521739%" stop-opacity="1" style="stop-color:rgb(255,8,3)"/></linearGradient><path d=" M 9.517 22.931 L 8.418 25.724 L 5.848 25.897 L 6.167 28.696 L 4.378 30.105 L 8.542 31.851 L 12.745 31.079 L 12.745 27.421 L 9.517 22.931 Z " fill-rule="evenodd" fill="url(#_lgradient_2)"/></g></g></svg>