<?xml version="1.0" encoding="UTF-8" standalone="no"?><!-- Generator: Gravit.io --><svg xmlns="http://www.w3.org/2000/svg" xmlns:xlink="http://www.w3.org/1999/xlink" style="isolation:isolate" viewBox="0 0 512 512" width="512pt" height="512pt"><defs><clipPath id="_clipPath_9EHsRWVqxcSXPbOP6Wq0hA80xsdw0SMc"><rect width="512" height="512"/></clipPath></defs><g clip-path="url(#_clipPath_9EHsRWVqxcSXPbOP6Wq0hA80xsdw0SMc)"><rect width="512" height="512" style="fill:rgb(243,242,240)"/><g style="opacity:0.04;"><path d=" M 73.487 -63.856 C 108.083 -83.985 146.994 -95.297 186.963 -96.843 C 223.963 -97.839 260.744 -91.281 295.113 -77.56 C 328.097 -64.67 358.764 -46.56 385.887 -23.739 C 398.451 -13.318 410.08 -1.917 420.736 10.355 C 430.253 21.19 438.748 33.081 446.137 45.61 C 453.225 58.156 458.994 71.465 463.331 85.161 C 468.424 100.931 472.268 117.136 474.768 133.523 C 477.552 151.971 479.166 170.5 479.465 189.037 C 480.013 209.527 479.275 229.853 477.386 250.248 C 473.241 295.6 464.458 340.315 451.279 383.869 C 437.74 429.131 419.909 473.145 398.305 515.197 C 382.36 513.844 366.69 511.893 350.871 509.459 C 306.85 503.226 263.187 494.249 220.193 482.532 C 194.685 475.418 169.475 467.253 144.739 457.622 C 119.681 448.152 95.413 436.777 72.094 423.638 C 49.619 411.201 28.652 396.264 9.362 379.349 C -8.594 363.398 -24.065 344.848 -36.205 324.09 C -51.646 297.345 -62.936 268.513 -69.801 238.603 C -77.818 204.906 -79.624 170.133 -74.978 135.957 C -69.678 98.298 -55.55 62.348 -33.849 30.954 C -21.087 12.898 -6.365 -3.779 10.112 -18.494 C 29.583 -35.687 50.808 -50.918 73.487 -63.856 Z  M 172.199 152.658 C 176.348 156.215 194.446 145.921 193.441 140.549 C 192.416 135.189 191.625 129.694 191.181 124.309 C 190.051 111.013 190.109 97.756 191.501 84.479 C 193.037 68.583 197.352 53.152 204.329 38.747 C 211.956 23.63 223.655 10.949 238.213 2.234 L 238.66 1.976 C 251.623 -5.198 265.876 -9.286 280.6 -10.05 C 296.744 -10.908 312.905 -8.645 328.299 -3.585 C 362.168 7.475 390.865 30.422 408.799 61.215 L 409.706 62.787 C 412.1 67.202 414.103 71.971 415.672 76.706 C 417.733 83.099 419.561 89.626 420.924 96.111 C 424.299 113.027 426.707 130.062 427.781 147.117 C 430.689 189.715 430.011 232.288 425.819 274.69 C 423.719 296.243 420.857 317.821 416.835 339.137 C 413.371 358.372 408.758 377.365 402.912 396.06 C 398.444 410.957 392.321 425.361 384.559 438.9 C 381.623 443.856 378.1 448.555 374.27 452.992 C 371.465 456.112 368.178 458.89 364.441 461.203 C 360.705 463.204 356.54 464.729 352.435 465.598 C 346.677 466.697 340.846 467.398 335.086 467.463 C 319.297 467.367 303.731 465.64 288.412 462.011 C 269.193 457.813 250.262 452.544 231.688 445.877 C 211.216 438.702 190.952 430.631 171.053 421.624 C 131.917 404.263 94.465 383.679 58.826 360.004 C 44.477 350.614 30.714 340.134 17.741 328.733 C 12.69 324.378 7.854 319.588 3.359 314.626 C 0.023 310.911 -3.049 306.888 -5.676 302.608 L -7.443 299.772 C -16.642 283.837 -23.224 266.521 -26.657 248.473 C -29.767 232.284 -29.684 215.441 -26.29 199.222 C -22.918 183.457 -16.258 168.458 -6.77 155.579 C 4.022 141.326 17.559 129.499 32.987 120.721 C 33.104 120.654 33.104 120.654 33.104 120.654 L 33.433 120.464 C 47.717 112.528 63.862 108.848 80.193 110.106 C 95.838 111.477 111.01 115.657 125.203 122.446 C 137.164 128.013 148.577 134.648 159.305 142.428 C 163.834 145.61 168.129 148.926 172.199 152.658 Z " fill-rule="evenodd" fill="rgb(0,0,0)"/><linearGradient id="_lgradient_24" x1="0.4999320822405928" y1="0" x2="0.49467705522190525" y2="0.7326617911749465" gradientTransform="matrix(66.716,-38.519,38.446,66.59,190.758,233.973)" gradientUnits="userSpaceOnUse"><stop offset="0%" stop-opacity="1" style="stop-color:rgb(245,155,19)"/><stop offset="98.26086956521739%" stop-opacity="1" style="stop-color:rgb(255,8,3)"/></linearGradient><path d=" M 249.928 279.446 L 226.209 264.389 L 202.506 249.321 C 192.427 242.939 191.57 233.504 200.579 228.303 L 224.112 214.716 L 247.645 201.129 C 256.671 195.918 264.396 201.388 264.901 213.298 L 266.081 241.368 L 267.278 269.429 C 267.766 281.348 259.99 285.838 249.928 279.446 Z " fill="url(#_lgradient_24)"/><path d=" M 338.127 92.852 C 348.085 113.514 340.549 138.711 320.366 150.364 C 299.21 162.578 272.117 155.318 259.903 134.163 C 247.689 113.008 254.937 85.895 276.093 73.681 C 296.27 62.031 321.859 68.114 334.779 87.056 L 329.234 91.152 L 310.829 104.748 L 331.806 95.606 L 338.127 92.852 Z " fill="rgb(0,0,0)"/><path d=" M 135.016 210.118 C 144.974 230.78 137.439 255.977 117.255 267.63 C 96.1 279.844 69.006 272.584 56.792 251.429 C 44.578 230.274 51.827 203.161 72.982 190.947 C 93.159 179.297 118.748 185.38 131.668 204.322 L 126.124 208.418 L 107.718 222.014 L 128.695 212.872 L 135.016 210.118 Z " fill="rgb(0,0,0)"/><g><linearGradient id="_lgradient_25" x1="0.5" y1="0" x2="0.5197746882283599" y2="0.9670996159746843" gradientTransform="matrix(150.921,-87.134,92.883,160.878,336.119,355.906)" gradientUnits="userSpaceOnUse"><stop offset="0%" stop-opacity="1" style="stop-color:rgb(245,155,19)"/><stop offset="53.333333333333336%" stop-opacity="1" style="stop-color:rgb(248,112,14)"/><stop offset="98.26086956521739%" stop-opacity="1" style="stop-color:rgb(255,8,3)"/></linearGradient><path d=" M 411.891 336.244 L 425.723 347.267 C 435.397 354.975 452.263 356.804 463.364 351.349 L 471.296 347.452 C 482.397 341.997 495.416 346.777 500.35 358.119 L 505.882 370.835 C 510.816 382.178 524.761 392.823 537.003 394.592 L 539.567 394.963 C 551.808 396.732 555.668 406.161 548.18 416.006 L 545.531 419.489 C 523.068 449.024 486.042 479.694 462.899 487.935 L 462.899 487.935 C 439.756 496.177 412.434 488.087 401.923 469.883 L 401.923 469.883 C 391.413 451.678 385.883 406.922 389.582 369.999 L 392.13 344.577 C 393.363 332.27 402.218 328.536 411.891 336.244 Z " fill-rule="evenodd" fill="url(#_lgradient_25)"/><linearGradient id="_lgradient_26" x1="0.5" y1="0" x2="0.5197746882283599" y2="0.9670996159746843" gradientTransform="matrix(-150.921,87.134,92.883,160.878,287.276,384.105)" gradientUnits="userSpaceOnUse"><stop offset="0%" stop-opacity="1" style="stop-color:rgb(245,155,19)"/><stop offset="53.333333333333336%" stop-opacity="1" style="stop-color:rgb(248,112,14)"/><stop offset="98.26086956521739%" stop-opacity="1" style="stop-color:rgb(255,8,3)"/></linearGradient><path d=" M 232.362 439.895 L 234.992 457.385 C 236.831 469.617 229.982 485.138 219.707 492.025 L 212.366 496.945 C 202.091 503.832 199.721 517.496 207.077 527.441 L 215.324 538.589 C 222.679 548.534 224.926 565.933 220.337 577.419 L 219.376 579.825 C 214.787 591.311 221.024 599.368 233.294 597.806 L 237.634 597.254 C 274.444 592.568 319.518 575.837 338.227 559.915 L 338.227 559.915 C 356.935 543.993 363.591 516.287 353.08 498.082 L 353.08 498.082 C 342.57 479.877 306.575 452.71 272.749 437.453 L 249.46 426.948 C 238.185 421.862 230.524 427.664 232.362 439.895 Z " fill-rule="evenodd" fill="url(#_lgradient_26)"/></g></g><path d=" M 179 352 C 153.93 325.029 113 301.118 113 260 C 113 221.581 118.772 180.435 141 154 C 166.351 123.85 210.771 111 251.5 111 C 297.692 111 353.832 125.559 379 163 C 395.481 187.518 390 227.459 390 260 C 390 297.976 363.773 321.674 342 348 C 316.624 378.682 292.641 409 251.5 409 C 213.28 409 204.07 378.971 179 352 Z " fill="rgb(255,255,255)"/><g><path d=" M 261.839 68.437 C 284.124 68.362 306.034 73.74 325.735 84.121 C 343.852 93.94 359.761 107.341 372.513 123.524 C 384.828 138.921 394.573 156.189 401.298 174.743 C 404.455 183.265 406.888 191.999 408.609 200.883 C 410.182 208.756 410.968 216.854 411.042 224.952 C 410.968 232.974 410.044 240.997 408.322 248.808 C 406.388 257.829 403.731 266.713 400.374 275.31 C 396.581 284.98 392.202 294.363 387.186 303.384 C 381.746 313.415 375.732 323.01 369.144 332.318 C 354.521 353.031 337.838 372.146 319.36 389.477 C 300.232 407.531 279.382 423.789 257.26 438.051 C 249.949 432.96 242.936 427.657 235.986 422.08 C 216.497 406.82 197.943 390.338 180.475 372.72 C 170.156 362.189 160.274 351.234 151.029 339.705 C 141.583 328.163 133.049 315.923 125.463 303.097 C 118.089 290.844 112.137 277.805 107.545 264.28 C 103.328 251.59 101.032 238.34 100.958 224.952 C 100.958 207.758 103.54 190.714 108.556 174.381 C 114.071 155.902 122.88 138.634 134.634 123.449 C 147.672 106.767 164.492 93.366 183.694 84.27 C 194.874 79.117 206.615 75.174 218.656 72.666 C 232.83 69.797 247.303 68.362 261.839 68.437 Z  M 249.162 200.309 C 249.668 201.744 252.812 205.327 255.963 205.345 C 259.113 205.364 262.27 201.819 262.775 200.384 C 263.773 197.514 264.921 194.644 266.206 191.924 C 269.363 185.199 273.081 178.823 277.448 172.809 C 282.614 165.572 288.99 159.334 296.364 154.33 C 304.25 149.165 313.42 146.307 322.866 146.158 L 323.153 146.158 C 331.4 146.307 339.411 148.304 346.722 152.034 C 354.745 156.114 361.907 161.704 367.921 168.429 C 381.172 183.19 388.621 202.243 388.696 222.082 L 388.696 223.092 C 388.621 225.887 388.259 228.745 387.698 231.465 C 386.911 235.12 385.976 238.776 384.828 242.282 C 381.746 251.378 378.165 260.262 373.935 268.784 C 363.479 290.133 351.301 310.471 337.477 329.748 C 330.464 339.555 323.078 349.163 315.205 358.321 C 308.18 366.631 300.669 374.504 292.646 381.891 C 286.345 387.83 279.382 393.07 271.871 397.437 C 269.076 399.009 266.069 400.295 262.987 401.368 C 260.766 402.091 258.408 402.515 255.963 402.59 C 253.604 402.515 251.171 402.091 248.95 401.368 C 245.868 400.295 242.861 399.009 240.067 397.437 C 232.48 392.995 225.456 387.83 219.08 381.816 C 210.982 374.442 203.321 366.631 196.221 358.246 C 188.348 349.088 180.824 339.555 173.737 329.673 C 159.7 310.408 147.373 290.058 136.78 268.722 C 132.475 260.2 128.757 251.316 125.675 242.208 C 124.452 238.701 123.454 235.046 122.668 231.402 C 122.094 228.682 121.732 225.887 121.657 223.092 L 121.595 221.233 C 121.595 210.989 123.242 200.808 126.611 191.151 C 129.618 182.479 134.347 174.381 140.498 167.506 C 146.512 160.843 153.899 155.466 162.059 151.897 C 171.229 148.029 181.049 146.095 190.931 146.158 C 191.006 146.158 191.006 146.158 191.006 146.158 L 191.218 146.158 C 200.314 146.307 209.123 149.027 216.647 154.18 C 223.809 159.196 229.96 165.435 234.913 172.659 C 239.131 178.673 242.787 185.049 245.794 191.787 C 247.091 194.582 248.239 197.377 249.162 200.309 Z " fill-rule="evenodd" fill="rgb(0,0,0)"/><linearGradient id="_lgradient_27" x1="0.4999320822405928" y1="0" x2="0.49467705522190525" y2="0.7326617911749465" gradientTransform="matrix(42.89,0,0,42.809,235.475,244.681)" gradientUnits="userSpaceOnUse"><stop offset="0%" stop-opacity="1" style="stop-color:rgb(245,155,19)"/><stop offset="98.26086956521739%" stop-opacity="1" style="stop-color:rgb(255,8,3)"/></linearGradient><path d=" M 251.346 283.078 L 244.101 269.215 L 236.867 255.352 C 233.784 249.469 235.997 244.681 241.789 244.681 L 256.917 244.681 L 272.046 244.681 C 277.849 244.681 280.051 249.469 276.979 255.352 L 269.734 269.215 L 262.5 283.078 C 259.417 288.961 254.418 288.961 251.346 283.078 Z " fill="url(#_lgradient_27)"/><path d=" M 345.814 217.663 C 344.864 230.397 334.216 240.448 321.241 240.448 C 307.64 240.448 296.598 229.406 296.598 215.806 C 296.598 202.205 307.64 191.151 321.241 191.151 C 334.212 191.151 344.857 201.207 345.813 213.936 L 342 214.368 L 329.341 215.799 L 342 217.231 L 345.814 217.663 Z " fill="rgb(0,0,0)"/><path d=" M 215.24 217.663 C 214.289 230.397 203.642 240.448 190.666 240.448 C 177.066 240.448 166.023 229.406 166.023 215.806 C 166.023 202.205 177.066 191.151 190.666 191.151 C 203.637 191.151 214.282 201.207 215.239 213.936 L 211.425 214.368 L 198.766 215.799 L 211.425 217.231 L 215.24 217.663 Z " fill="rgb(0,0,0)"/><g><linearGradient id="_lgradient_28" x1="0.5" y1="0" x2="0.5197746882283599" y2="0.9670996159746843" gradientTransform="matrix(97.023,0,0,103.424,271.619,343.937)" gradientUnits="userSpaceOnUse"><stop offset="0%" stop-opacity="1" style="stop-color:rgb(245,155,19)"/><stop offset="53.333333333333336%" stop-opacity="1" style="stop-color:rgb(248,112,14)"/><stop offset="98.26086956521739%" stop-opacity="1" style="stop-color:rgb(255,8,3)"/></linearGradient><path d=" M 313.626 355.55 L 317.227 364.715 C 319.745 371.124 327.368 376.701 334.239 377.161 L 339.149 377.49 C 346.02 377.95 350.966 383.879 350.188 390.721 L 349.315 398.393 C 348.537 405.235 352.297 414.249 357.707 418.51 L 358.84 419.402 C 364.25 423.663 363.486 429.284 357.135 431.947 L 354.888 432.889 C 335.836 440.876 309.446 445.356 295.993 442.888 L 295.993 442.888 C 282.541 440.419 271.619 428.913 271.619 417.209 L 271.619 417.209 C 271.619 405.506 281.411 382.387 293.473 365.615 L 301.778 354.066 C 305.799 348.476 311.108 349.14 313.626 355.55 Z " fill-rule="evenodd" fill="url(#_lgradient_28)"/><linearGradient id="_lgradient_29" x1="0.5" y1="0" x2="0.5197746882283599" y2="0.9670996159746843" gradientTransform="matrix(-97.023,0,0,103.424,240.219,343.937)" gradientUnits="userSpaceOnUse"><stop offset="0%" stop-opacity="1" style="stop-color:rgb(245,155,19)"/><stop offset="53.333333333333336%" stop-opacity="1" style="stop-color:rgb(248,112,14)"/><stop offset="98.26086956521739%" stop-opacity="1" style="stop-color:rgb(255,8,3)"/></linearGradient><path d=" M 198.212 355.55 L 194.611 364.715 C 192.092 371.124 184.469 376.701 177.598 377.161 L 172.689 377.49 C 165.818 377.95 160.872 383.879 161.65 390.721 L 162.523 398.393 C 163.301 405.235 159.541 414.249 154.131 418.51 L 152.998 419.402 C 147.588 423.663 148.352 429.284 154.703 431.947 L 156.949 432.889 C 176.002 440.876 202.392 445.356 215.845 442.888 L 215.845 442.888 C 229.297 440.419 240.219 428.913 240.219 417.209 L 240.219 417.209 C 240.219 405.506 230.426 382.387 218.364 365.615 L 210.059 354.066 C 206.039 348.476 200.73 349.14 198.212 355.55 Z " fill-rule="evenodd" fill="url(#_lgradient_29)"/></g></g></g></svg>